# The units used in this file are centimeters.  TRUE_HIERARCHY
g default
v -0.500000 -1.500000 0.000000
v 0.500000 -1.500000 0.000000
v 0.500000 -0.500000 1.294810
v -0.500000 -0.500000 1.294810
v -1.500000 -0.500000 0.000000
v -0.500000 0.500000 1.294810
v -1.500000 0.500000 0.000000
v 0.500000 0.500000 1.294810
v 1.500000 -0.500000 0.000000
v 1.500000 0.500000 0.000000
v 0.500000 1.500000 0.000000
v -0.500000 1.500000 0.000000
vt 0.333333 0.000000
vt 0.666667 0.000000
vt 0.666667 0.333333
vt 0.333333 0.333333
vt 0.000000 0.333333
vt 0.333333 0.666667
vt 0.000000 0.666667
vt 0.666667 0.666667
vt 1.000000 0.333333
vt 1.000000 0.666667
vt 0.666667 1.000000
vt 0.333333 1.000000
vn 0.000000 -0.791443 0.611243
vn 0.000000 -0.791443 0.611243
vn 0.318051 -0.318051 0.893133
vn -0.318051 -0.318051 0.893133
vn -0.791443 0.000000 0.611243
vn -0.318051 -0.318051 0.893133
vn -0.318051 0.318051 0.893133
vn -0.791443 0.000000 0.611243
vn -0.318051 -0.318051 0.893133
vn 0.318051 -0.318051 0.893133
vn 0.318051 0.318051 0.893133
vn -0.318051 0.318051 0.893133
vn 0.318051 -0.318051 0.893133
vn 0.791443 0.000000 0.611243
vn 0.791443 0.000000 0.611243
vn 0.318051 0.318051 0.893133
vn -0.318051 0.318051 0.893133
vn 0.318051 0.318051 0.893133
vn 0.000000 0.791443 0.611243
vn 0.000000 0.791443 0.611243
g pPlane1
f 1/1/1 2/2/2 3/3/3 4/4/4
f 5/5/5 4/4/6 6/6/7 7/7/8
f 4/4/9 3/3/10 8/8/11 6/6/12
f 3/3/13 9/9/14 10/10/15 8/8/16
f 6/6/17 8/8/18 11/11/19 12/12/20
